<?xml version="1.0" standalone="no"?>
<!DOCTYPE svg PUBLIC "-//W3C//DTD SVG 20010904//EN"
 "http://www.w3.org/TR/2001/REC-SVG-20010904/DTD/svg10.dtd">
<svg version="1.0" xmlns="http://www.w3.org/2000/svg"
 width="512.000000pt" height="512.000000pt" viewBox="0 0 512.000000 512.000000"
 preserveAspectRatio="xMidYMid meet">

<g transform="translate(0.000000,512.000000) scale(0.100000,-0.100000)"
fill="#F00" stroke="none">
<path d="M397 5104 c-97 -23 -167 -63 -242 -139 -77 -77 -116 -145 -140 -247
-22 -95 -22 -4221 0 -4316 24 -102 63 -170 140 -247 77 -77 145 -116 247 -140
95 -22 4221 -22 4316 0 102 24 170 63 247 140 77 77 116 145 140 247 22 95 22
4221 0 4316 -24 102 -63 170 -140 247 -77 77 -145 116 -247 140 -92 22 -4231
21 -4321 -1z m3626 -1438 c196 -45 378 -139 487 -250 l44 -46 -74 -75 -74 -75
-31 28 c-94 88 -218 158 -350 198 -84 26 -102 28 -280 28 -180 0 -195 -1 -280
-28 -259 -79 -460 -246 -570 -471 -61 -124 -85 -223 -92 -375 -9 -198 31 -363
126 -524 90 -153 215 -265 386 -347 359 -171 786 -115 1055 138 l36 33 78 -79
77 -78 -58 -50 c-173 -149 -362 -233 -590 -264 -110 -14 -353 -7 -448 15 -281
62 -513 205 -669 413 -181 240 -257 517 -227 820 37 370 231 675 547 862 248
146 604 196 907 127z m-3213 -660 l5 -668 650 668 650 669 140 3 140 3 -46
-48 c-886 -925 -923 -965 -911 -984 7 -11 234 -281 505 -602 271 -320 496
-588 501 -594 6 -10 -23 -13 -132 -13 l-139 0 -453 520 c-248 286 -455 520
-458 520 -4 0 -107 -100 -230 -223 l-222 -222 0 -298 0 -297 -125 0 -125 0 0
1113 c0 613 3 1117 7 1121 4 3 59 5 122 4 l116 -3 5 -669z"/>
</g>
</svg>
